<svg xmlns="http://www.w3.org/2000/svg" viewBox="0 0 230 181.3"><defs><style>.cls-1{fill:#040404;}.cls-2{fill:#333;}</style></defs><title>logo_header</title><g id="Layer_2" data-name="Layer 2"><g id="Layer_1-2" data-name="Layer 1"><g id="Layer_1-3" data-name="Layer 1"><path class="cls-1" d="M20.59,74.82l-2.05,4.12q-1.66-1.66-5.37-1.66a7,7,0,0,0-5.76,2.94,12,12,0,0,0-2.23,7.43,11.32,11.32,0,0,0,2.07,7.13,6.74,6.74,0,0,0,5.55,2.64A7.43,7.43,0,0,0,19,94.58l2.33,4q-3,3.24-8.94,3.24c-3.92,0-6.95-1.28-9.12-3.86S0,91.87,0,87.42A15.29,15.29,0,0,1,3.6,77a11.78,11.78,0,0,1,9.25-4.2,13.46,13.46,0,0,1,7.73,2"/><path class="cls-1" d="M41.18,101.39,33.7,89.8l-3.15-.12V101.4H25.36V73.33c.28,0,1.37,0,3.25-.15S32,73,33.15,73q10.7,0,10.69,8.28a7.72,7.72,0,0,1-1.48,4.54,8.13,8.13,0,0,1-3.7,2.9L47,101.39ZM30.52,77.66v7.8c.92.09,1.62.11,2.11.11a9.29,9.29,0,0,0,4.57-.87c1-.58,1.45-1.73,1.45-3.44a3,3,0,0,0-1.56-2.9,11,11,0,0,0-4.88-.83,10.69,10.69,0,0,0-1.69.13"/><path class="cls-1" d="M48,87.13A16,16,0,0,1,51.25,77,10.63,10.63,0,0,1,60,72.84c4,0,7.13,1.26,9.25,3.75s3.2,6,3.2,10.54-1.11,8.1-3.35,10.76-5.39,4-9.49,4A10.29,10.29,0,0,1,51,97.94c-2-2.62-3-6.24-3-10.81m5.16,0q0,4.92,1.66,7.63a5.36,5.36,0,0,0,4.84,2.71,6.6,6.6,0,0,0,5.69-2.65c1.3-1.76,2-4.32,2-7.67,0-6.57-2.44-9.87-7.27-9.87A5.79,5.79,0,0,0,54.9,80a12.73,12.73,0,0,0-1.78,7.19"/><polygon class="cls-1" points="99.54 101.77 97.49 101.77 91.35 84.08 85.4 101.77 83.34 101.77 74.12 73.33 79.33 73.33 84.59 90.26 90.28 73.33 92.46 73.33 98.17 90.26 103.42 73.33 108.62 73.33 99.54 101.77"/><path class="cls-1" d="M117.81,101.39h-6.23v-28c4-.14,6.46-.21,7.49-.21q6.14,0,9.72,3.58a12.92,12.92,0,0,1,3.58,9.53q0,15.14-14.56,15.14M116.56,77.7V96.85a25,25,0,0,0,2.6.1,7.05,7.05,0,0,0,5.9-2.74c1.43-1.84,2.13-4.4,2.13-7.66,0-6-2.8-9-8.38-9-.76,0-1.51.06-2.26.15"/><path d="M160.25,101.32l-2-5.65h-9.56l-1.94,5.65h-5.51L152.33,73h2.19l11.21,28.28Zm-6.83-19.75-3.36,10.3h6.7Z"/><path d="M173.62,91v10.27h-5V73.44q5-.21,5.79-.2c4.4,0,7.63.67,9.66,2a7,7,0,0,1,3.06,6.33q0,9.6-11.31,9.6A22.39,22.39,0,0,1,173.62,91Zm0-13.33v8.94c.66.07,1.32.12,2,.13a8.57,8.57,0,0,0,5-1.13A4.26,4.26,0,0,0,182.11,82q0-4.33-7-4.34a10.84,10.84,0,0,0-1.51.11Z"/><path d="M196.51,91v10.27h-4.95V73.44q5-.21,5.78-.2,6.61,0,9.67,2a7.07,7.07,0,0,1,3.06,6.33q0,9.6-11.31,9.6A22.39,22.39,0,0,1,196.51,91Zm0-13.33v8.94c.66.07,1.32.12,2,.13a8.57,8.57,0,0,0,4.95-1.13A4.26,4.26,0,0,0,205,82q0-4.33-7-4.34a10.81,10.81,0,0,0-1.5.11Z"/><path d="M213.11,99.78l1.83-4.44a10.05,10.05,0,0,0,5.77,2.06c2.9,0,4.36-1,4.36-3.05a4.29,4.29,0,0,0-1-2.71,13.22,13.22,0,0,0-4.23-2.91,20.66,20.66,0,0,1-4.33-2.64,7.08,7.08,0,0,1-1.71-2.47,8,8,0,0,1-.59-3.16,6.9,6.9,0,0,1,2.37-5.37A8.8,8.8,0,0,1,221.63,73q4.83,0,7.1,1.81L227.22,79a9.3,9.3,0,0,0-5.5-1.86,3.72,3.72,0,0,0-2.65.89,3.12,3.12,0,0,0-.95,2.35c0,1.6,1.78,3.26,5.32,5a17.77,17.77,0,0,1,4,2.52,7.78,7.78,0,0,1,1.89,2.68A8.66,8.66,0,0,1,230,94a6.89,6.89,0,0,1-2.67,5.57,11,11,0,0,1-7.17,2.19A12.73,12.73,0,0,1,213.11,99.78Z"/><path d="M115,0A39,39,0,0,0,83.72,62.35H90a34.25,34.25,0,1,1,50.11,0h6.24A39,39,0,0,0,115,0Z"/><path d="M115,23.63a8.14,8.14,0,0,0-6.31,2.6A9.5,9.5,0,0,0,106.32,33a10,10,0,0,0,2.29,6.85,7.26,7.26,0,0,0,3,2l-2.06,12.59h10.92l-2.08-12.6a7.32,7.32,0,0,0,3-2A9.77,9.77,0,0,0,123.69,33a9.72,9.72,0,0,0-2.28-6.83A8.19,8.19,0,0,0,115,23.63Z"/></g><path class="cls-2" d="M142.11,159.7q-9.13,0-9.14-9.14a6.58,6.58,0,0,1,1.34-4.3,4.25,4.25,0,0,1,3.41-1.64,4.14,4.14,0,0,1,3.34,1.32,5.06,5.06,0,0,1,1.11,3.36,3.22,3.22,0,0,1-1.16,2.57,4,4,0,0,1-2.63,1,4.15,4.15,0,0,1-1.31-.23l-.62-.45c-.2.05-.34.3-.42.76a4.1,4.1,0,0,0,0,1.21,4.64,4.64,0,0,0,2.06,3.31,7.84,7.84,0,0,0,4,1l0,1.3Z"/><path class="cls-2" d="M159.85,172q-16.56,0-16.56-16.56a11.84,11.84,0,0,1,2.44-7.8,7.65,7.65,0,0,1,6.19-3q4,0,6.06,2.39a9.11,9.11,0,0,1,2,6.09,5.8,5.8,0,0,1-2.1,4.65,7.11,7.11,0,0,1-4.75,1.78,7.73,7.73,0,0,1-2.38-.41l-1.12-.82c-.37.09-.62.56-.76,1.38a7.22,7.22,0,0,0-.07,2.2c.55,2.86,1.79,4.85,3.72,6a14,14,0,0,0,7.32,1.73V172Z"/><path class="cls-2" d="M148.37,136.54a21.13,21.13,0,1,1-21.13,21.13,21.15,21.15,0,0,1,21.13-21.13m0-2.5A23.63,23.63,0,1,0,172,157.67,23.63,23.63,0,0,0,148.37,134"/><path class="cls-2" d="M187.51,148.12l-.67,1.36a2.42,2.42,0,0,0-1.77-.55,2.27,2.27,0,0,0-1.9,1,3.94,3.94,0,0,0-.74,2.45,3.67,3.67,0,0,0,.69,2.35,2.2,2.2,0,0,0,1.83.88,2.44,2.44,0,0,0,2-.94l.77,1.33a3.86,3.86,0,0,1-2.95,1.07,3.69,3.69,0,0,1-3-1.27,5.26,5.26,0,0,1-1.08-3.49,5.08,5.08,0,0,1,1.19-3.43,3.87,3.87,0,0,1,3.05-1.38,4.44,4.44,0,0,1,2.54.65"/><path class="cls-2" d="M194.3,156.88l-2.47-3.83-1,0v3.87h-1.7v-9.25c.09,0,.45,0,1.06,0s1.12-.05,1.5-.05q3.53,0,3.52,2.73a2.55,2.55,0,0,1-.48,1.49,2.69,2.69,0,0,1-1.23,1l2.74,4.17Zm-3.51-7.82v2.57a6.5,6.5,0,0,0,.69,0,3,3,0,0,0,1.51-.29,1.22,1.22,0,0,0,.47-1.13,1,1,0,0,0-.51-1,3.6,3.6,0,0,0-1.61-.28,3.41,3.41,0,0,0-.55.05"/><path class="cls-2" d="M196.54,152.18a5.24,5.24,0,0,1,1.08-3.35,3.52,3.52,0,0,1,2.9-1.36,3.82,3.82,0,0,1,3,1.23,5.24,5.24,0,0,1,1.05,3.48,5.37,5.37,0,0,1-1.1,3.54,3.86,3.86,0,0,1-3.13,1.32,3.42,3.42,0,0,1-2.86-1.3,5.77,5.77,0,0,1-1-3.56m1.7,0a4.77,4.77,0,0,0,.55,2.51,1.74,1.74,0,0,0,1.59.89,2.2,2.2,0,0,0,1.88-.87,4.2,4.2,0,0,0,.65-2.53c0-2.16-.81-3.25-2.4-3.25a1.92,1.92,0,0,0-1.69.88,4.28,4.28,0,0,0-.58,2.37"/><polygon class="cls-2" points="213.53 157 212.85 157 210.83 151.17 208.87 157 208.19 157 205.15 147.63 206.87 147.63 208.6 153.21 210.48 147.63 211.19 147.63 213.08 153.21 214.81 147.63 216.52 147.63 213.53 157"/><path class="cls-2" d="M219.55,156.88H217.5v-9.24c1.3,0,2.13-.07,2.46-.07a4.33,4.33,0,0,1,3.21,1.18,4.25,4.25,0,0,1,1.18,3.14c0,3.32-1.6,5-4.8,5m-.42-7.81v6.31a7.86,7.86,0,0,0,.86,0,2.34,2.34,0,0,0,1.95-.9,4,4,0,0,0,.7-2.52c0-2-.92-3-2.76-3a6.27,6.27,0,0,0-.75,0"/><path class="cls-2" d="M183.14,164.32v3.4h-1.65v-9.24l1.92-.07a5.89,5.89,0,0,1,3.2.67,2.33,2.33,0,0,1,1,2.1q0,3.18-3.75,3.18l-.73,0m0-4.42v2.95c.28,0,.49.05.65.05a2.81,2.81,0,0,0,1.64-.38,1.4,1.4,0,0,0,.52-1.22c0-1-.77-1.44-2.32-1.44a4,4,0,0,0-.49,0"/><path class="cls-2" d="M188.83,163a5.24,5.24,0,0,1,1.08-3.35,3.52,3.52,0,0,1,2.9-1.36,3.79,3.79,0,0,1,3.05,1.23,5.24,5.24,0,0,1,1,3.48,5.3,5.3,0,0,1-1.1,3.54,3.86,3.86,0,0,1-3.13,1.32,3.42,3.42,0,0,1-2.86-1.3,5.77,5.77,0,0,1-1-3.56m1.7,0a4.87,4.87,0,0,0,.55,2.51,1.78,1.78,0,0,0,1.6.89,2.18,2.18,0,0,0,1.87-.87,4.2,4.2,0,0,0,.65-2.53c0-2.16-.8-3.25-2.4-3.25a1.89,1.89,0,0,0-1.68.88,4.2,4.2,0,0,0-.59,2.37"/><polygon class="cls-2" points="198.56 167.72 198.56 158.47 200.2 158.47 200.2 166.26 204.38 166.26 204.38 167.72 198.56 167.72"/><rect class="cls-2" x="205.93" y="158.47" width="1.64" height="9.25"/><path class="cls-2" d="M216,159l-.68,1.36a2.39,2.39,0,0,0-1.77-.55,2.26,2.26,0,0,0-1.89,1,3.94,3.94,0,0,0-.74,2.45,3.61,3.61,0,0,0,.69,2.35,2.2,2.2,0,0,0,1.82.88,2.44,2.44,0,0,0,2-.94l.76,1.33a3.84,3.84,0,0,1-2.94,1.07,3.69,3.69,0,0,1-3-1.28,5.21,5.21,0,0,1-1.08-3.48,5.08,5.08,0,0,1,1.19-3.43,3.81,3.81,0,0,1,3-1.37A4.46,4.46,0,0,1,216,159"/><polygon class="cls-2" points="221.63 163.92 221.63 167.72 219.99 167.72 219.99 163.92 216.88 158.47 218.62 158.47 220.81 162.41 223 158.47 224.74 158.47 221.63 163.92"/><path class="cls-2" d="M15.55,158.35a6.27,6.27,0,0,1-1.1,3.88,3.53,3.53,0,0,1-3,1.48,3.9,3.9,0,0,1-3-1.22v5.09H6.63V153H8.28l.09,1.17a3.71,3.71,0,0,1,3.06-1.37,3.58,3.58,0,0,1,3,1.44,6.37,6.37,0,0,1,1.11,4Zm-1.8-.21a4.65,4.65,0,0,0-.77-2.82,2.43,2.43,0,0,0-2.09-1,2.66,2.66,0,0,0-2.46,1.45v5a2.66,2.66,0,0,0,2.48,1.44,2.44,2.44,0,0,0,2.07-1A5.07,5.07,0,0,0,13.75,158.14Z"/><path class="cls-2" d="M17.37,158.13a6.21,6.21,0,0,1,.61-2.79,4.52,4.52,0,0,1,1.7-1.91,4.59,4.59,0,0,1,2.48-.68,4.47,4.47,0,0,1,3.5,1.5,5.77,5.77,0,0,1,1.33,4v.13a6.36,6.36,0,0,1-.59,2.77A4.61,4.61,0,0,1,24.71,163a4.74,4.74,0,0,1-2.53.68,4.46,4.46,0,0,1-3.48-1.49,5.73,5.73,0,0,1-1.33-4Zm1.82.22a4.54,4.54,0,0,0,.81,2.82,2.77,2.77,0,0,0,4.37,0,5,5,0,0,0,.81-3,4.49,4.49,0,0,0-.82-2.81,2.63,2.63,0,0,0-2.2-1.08A2.57,2.57,0,0,0,20,155.3,4.9,4.9,0,0,0,19.19,158.35Z"/><path class="cls-2" d="M38.61,161l2-8.07h1.81l-3.08,10.56H37.91l-2.57-8-2.5,8H31.37L28.31,153H30.1l2.08,7.91L34.64,153H36.1Z"/><path class="cls-2" d="M48.67,163.71a4.63,4.63,0,0,1-3.5-1.41,5.24,5.24,0,0,1-1.35-3.78v-.33a6.37,6.37,0,0,1,.6-2.81,4.79,4.79,0,0,1,1.68-1.93,4.27,4.27,0,0,1,2.34-.7,4,4,0,0,1,3.21,1.36A5.88,5.88,0,0,1,52.79,158v.75H45.63a3.78,3.78,0,0,0,.91,2.52,2.9,2.9,0,0,0,2.23,1,3.19,3.19,0,0,0,1.62-.39,4,4,0,0,0,1.16-1l1.1.86A4.43,4.43,0,0,1,48.67,163.71Zm-.23-9.47a2.39,2.39,0,0,0-1.83.79,3.87,3.87,0,0,0-.92,2.23H51v-.13a3.47,3.47,0,0,0-.74-2.14A2.27,2.27,0,0,0,48.44,154.24Z"/><path class="cls-2" d="M60,154.57a5,5,0,0,0-.89-.07A2.37,2.37,0,0,0,56.69,156v7.5H54.88V153h1.76l0,1.22a2.8,2.8,0,0,1,2.52-1.42,1.88,1.88,0,0,1,.8.14Z"/><path class="cls-2" d="M65.85,163.71a4.62,4.62,0,0,1-3.5-1.41A5.24,5.24,0,0,1,61,158.52v-.33a6.37,6.37,0,0,1,.6-2.81,4.72,4.72,0,0,1,1.68-1.93,4.27,4.27,0,0,1,2.34-.7,4,4,0,0,1,3.2,1.36A5.83,5.83,0,0,1,70,158v.75H62.81a3.73,3.73,0,0,0,.91,2.52,2.86,2.86,0,0,0,2.22,1,3.13,3.13,0,0,0,1.62-.39,4.08,4.08,0,0,0,1.17-1l1.1.86A4.43,4.43,0,0,1,65.85,163.71Zm-.23-9.47a2.39,2.39,0,0,0-1.83.79,3.8,3.8,0,0,0-.92,2.23h5.29v-.13a3.47,3.47,0,0,0-.74-2.14A2.27,2.27,0,0,0,65.62,154.24Z"/><path class="cls-2" d="M71.62,158.14a6.18,6.18,0,0,1,1.15-3.91,3.66,3.66,0,0,1,3-1.48A3.71,3.71,0,0,1,78.73,154v-5.51h1.8v15H78.87l-.08-1.13a3.68,3.68,0,0,1-3,1.33,3.63,3.63,0,0,1-3-1.5,6.3,6.3,0,0,1-1.15-3.93Zm1.8.21a4.64,4.64,0,0,0,.75,2.81,2.38,2.38,0,0,0,2,1,2.65,2.65,0,0,0,2.51-1.55v-4.85a2.64,2.64,0,0,0-2.49-1.49,2.4,2.4,0,0,0-2.07,1A5.12,5.12,0,0,0,73.42,158.35Z"/><path class="cls-2" d="M97.23,158.35a6.3,6.3,0,0,1-1.11,3.89,3.56,3.56,0,0,1-3,1.47A3.65,3.65,0,0,1,90,162.29L90,163.51H88.29v-15h1.8v5.6a3.69,3.69,0,0,1,3-1.36,3.58,3.58,0,0,1,3,1.46,6.42,6.42,0,0,1,1.1,4Zm-1.8-.21a4.84,4.84,0,0,0-.72-2.85,2.35,2.35,0,0,0-2-1A2.66,2.66,0,0,0,90.09,156v4.57a2.75,2.75,0,0,0,2.59,1.66,2.34,2.34,0,0,0,2-1A5.13,5.13,0,0,0,95.43,158.14Z"/><path class="cls-2" d="M102.86,160.87l2.46-7.92h1.93L103,165.14c-.65,1.76-1.7,2.64-3.13,2.64l-.34,0-.68-.12v-1.47l.49,0a2.38,2.38,0,0,0,1.43-.37,2.7,2.7,0,0,0,.85-1.36l.4-1.07L98.25,153h2Z"/></g></g></svg>